<svg xmlns="http://www.w3.org/2000/svg" viewBox="0 0 64 64" role="img" aria-label="JHB favicon">
  <rect width="64" height="64" rx="16" fill="#0f172a"/>
  <circle cx="32" cy="32" r="22" fill="#38bdf8"/>
  <path d="M22 20h7.5v19.5c0 5.5-3.3 9.2-8.8 9.2-2.4 0-4.6-.6-6.2-1.8l2.2-5.5c1 .7 2.3 1.1 3.6 1.1 1.9 0 3.2-1.2 3.2-3.4V20zm15 0h12.1c5.3 0 8.4 2.7 8.4 7 0 2.9-1.5 4.9-4.1 5.8 3.1.7 4.8 2.9 4.8 6.2 0 4.8-3.4 7.5-9.3 7.5H37V20zm7.5 10.8h3.2c2.1 0 3.2-.9 3.2-2.7 0-1.7-1.1-2.5-3.1-2.5h-3.3v5.2zm0 12.3h3.7c2.3 0 3.6-.9 3.6-2.9 0-2-1.3-3-3.7-3h-3.6v5.9z" fill="#ffffff"/>
</svg>
